<svg width="46" height="57" viewBox="0 0 26 56" fill="none" xmlns="http://www.w3.org/2000/svg">
<mask id="path-1-outside-1_100_32764" maskUnits="userSpaceOnUse" x="-3" y="-2" width="31" height="60" fill="black">
<rect fill="white" x="-3" y="-2" width="31" height="60"/>
<path d="M13.2301 56L25.1301 0.0699956H16.9701C14.5901 2.365 8.89508 5.85 2.18008 6.7L0.0550783 15.71C2.26508 15.625 7.70508 15.03 10.9351 13.925L1.75508 56H13.2301Z"/>
</mask>
<path d="M13.2301 56L25.1301 0.0699956H16.9701C14.5901 2.365 8.89508 5.85 2.18008 6.7L0.0550783 15.71C2.26508 15.625 7.70508 15.03 10.9351 13.925L1.75508 56H13.2301Z" fill="#4EDCCE"/>
<path d="M13.2301 56V58H14.8493L15.1863 56.4162L13.2301 56ZM25.1301 0.0699959L27.0863 0.486211L27.6004 -1.93H25.1301V0.0699959ZM16.9701 0.0699959V-1.93H16.1629L15.5818 -1.36969L16.9701 0.0699959ZM2.18008 6.7L1.92892 4.71583L0.552063 4.89011L0.23349 6.24089L2.18008 6.7ZM0.0550842 15.71L-1.89151 15.2509L-2.49496 17.8096L0.131943 17.7085L0.0550842 15.71ZM10.9351 13.925L12.8891 14.3513L13.6456 10.8839L10.2877 12.0327L10.9351 13.925ZM1.75508 56L-0.198959 55.5737L-0.728333 58H1.75508V56ZM15.1863 56.4162L27.0863 0.486211L23.1739 -0.34622L11.2739 55.5838L15.1863 56.4162ZM25.1301 -1.93H16.9701V2.07H25.1301V-1.93ZM15.5818 -1.36969C13.4873 0.649981 8.183 3.92417 1.92892 4.71583L2.43124 8.68416C9.60715 7.77582 15.6928 4.08001 18.3584 1.50968L15.5818 -1.36969ZM0.23349 6.24089L-1.89151 15.2509L2.00168 16.1691L4.12668 7.1591L0.23349 6.24089ZM0.131943 17.7085C2.41653 17.6207 8.08185 17.0149 11.5825 15.8173L10.2877 12.0327C7.32831 13.0451 2.11362 13.6293 -0.0217896 13.7115L0.131943 17.7085ZM8.98105 13.4987L-0.198959 55.5737L3.70911 56.4263L12.8891 14.3513L8.98105 13.4987ZM1.75508 58H13.2301V54H1.75508V58Z" fill="#4EDCCE" mask="url(#path-1-outside-1_100_32764)"/>
</svg>
