<svg width="54" height="67" viewBox="0 0 54 67" fill="none" xmlns="http://www.w3.org/2000/svg">
<mask id="path-1-outside-1_93_30487" maskUnits="userSpaceOnUse" x="-3" y="-2" width="59" height="71" fill="black">
<rect fill="white" x="-3" y="-2" width="59" height="71"/>
<path d="M46.1727 67L50.1727 55.8H19.4727C22.3727 50.6 28.1727 46.9 36.7727 41.6C48.4727 34.3 53.7727 29.4 53.7727 18.3C53.7727 9.7 48.5727 0.099997 33.3727 0.099997C16.5727 0.099997 10.5727 11.4 8.77266 22.1H21.8727C23.4727 14.8 26.2727 11 32.4727 11C37.9727 11 39.7727 14.5 39.7727 18.4C39.7727 25.2 36.1727 28.1 26.0727 34.6C9.07266 45.4 2.97266 54.8 0.972656 64.7L0.472656 67H46.1727Z"/>
</mask>
<path d="M46.1727 67L50.1727 55.8H19.4727C22.3727 50.6 28.1727 46.9 36.7727 41.6C48.4727 34.3 53.7727 29.4 53.7727 18.3C53.7727 9.7 48.5727 0.099997 33.3727 0.099997C16.5727 0.099997 10.5727 11.4 8.77266 22.1H21.8727C23.4727 14.8 26.2727 11 32.4727 11C37.9727 11 39.7727 14.5 39.7727 18.4C39.7727 25.2 36.1727 28.1 26.0727 34.6C9.07266 45.4 2.97266 54.8 0.972656 64.7L0.472656 67H46.1727Z" fill="#4EDCCE"/>
<path d="M46.1727 67V69H47.5821L48.0561 67.6727L46.1727 67ZM50.1727 55.8L52.0561 56.4727L53.0107 53.8H50.1727V55.8ZM19.4727 55.8L17.7259 54.8259L16.0673 57.8H19.4727V55.8ZM36.7727 41.6L37.822 43.3027L37.8314 43.2968L36.7727 41.6ZM8.77266 22.1L6.80037 21.7682L6.4081 24.1H8.77266V22.1ZM21.8727 22.1V24.1H23.4818L23.8263 22.5282L21.8727 22.1ZM26.0727 34.6L27.1451 36.2882L27.155 36.2818L26.0727 34.6ZM0.972656 64.7L2.92701 65.1249L2.93014 65.1105L2.93305 65.096L0.972656 64.7ZM0.472656 67L-1.4817 66.5751L-2.00884 69H0.472656V67ZM48.0561 67.6727L52.0561 56.4727L48.2892 55.1273L44.2892 66.3273L48.0561 67.6727ZM50.1727 53.8H19.4727V57.8H50.1727V53.8ZM21.2194 56.7741C22.4883 54.4988 24.4364 52.4678 27.2102 50.3184C29.998 48.1581 33.5035 45.964 37.822 43.3026L35.7234 39.8974C31.4418 42.536 27.7473 44.8419 24.7601 47.1566C21.759 49.4822 19.357 51.9012 17.7259 54.8259L21.2194 56.7741ZM37.8314 43.2968C43.6811 39.647 48.2044 36.4402 51.2289 32.6155C54.34 28.6814 55.7727 24.2234 55.7727 18.3H51.7727C51.7727 23.4766 50.5554 27.0186 48.0914 30.1344C45.5409 33.3598 41.5642 36.253 35.714 39.9032L37.8314 43.2968ZM55.7727 18.3C55.7727 13.6217 54.3593 8.54633 50.7439 4.6202C47.0937 0.656269 41.4165 -1.9 33.3727 -1.9V2.1C40.5288 2.1 45.0517 4.34373 47.8014 7.3298C50.586 10.3537 51.7727 14.3783 51.7727 18.3H55.7727ZM33.3727 -1.9C24.4729 -1.9 18.2175 1.11736 13.975 5.73425C9.7914 10.287 7.73582 16.2075 6.80037 21.7682L10.7449 22.4318C11.6095 17.2925 13.4539 12.213 16.9203 8.44075C20.3278 4.73263 25.4724 2.1 33.3727 2.1V-1.9ZM8.77266 24.1H21.8727V20.1H8.77266V24.1ZM23.8263 22.5282C24.6021 18.9885 25.609 16.624 26.9347 15.1499C28.167 13.7797 29.8375 13 32.4727 13V9C28.9078 9 26.0783 10.1203 23.9606 12.4751C21.9363 14.7259 20.7432 17.9115 19.919 21.6718L23.8263 22.5282ZM32.4727 13C34.7717 13 35.9748 13.7107 36.6499 14.5193C37.3796 15.3933 37.7727 16.7175 37.7727 18.4H41.7727C41.7727 16.1824 41.2658 13.8067 39.7204 11.9557C38.1205 10.0393 35.6736 9 32.4727 9V13ZM37.7727 18.4C37.7727 21.3368 37.0356 23.274 35.2278 25.2699C33.2755 27.4253 30.0908 29.6357 24.9903 32.9182L27.155 36.2818C32.1546 33.0643 35.8198 30.5747 38.1925 27.9551C40.7097 25.176 41.7727 22.2632 41.7727 18.4H37.7727ZM25.0002 32.9119C7.71584 43.8925 1.1552 53.6964 -0.98774 64.304L2.93305 65.096C4.79012 55.9036 10.4295 46.9075 27.1451 36.2881L25.0002 32.9119ZM-0.981697 64.2751L-1.4817 66.5751L2.42701 67.4249L2.92701 65.1249L-0.981697 64.2751ZM0.472656 69H46.1727V65H0.472656V69Z" fill="#4EDCCE" mask="url(#path-1-outside-1_93_30487)"/>
</svg>
