<svg width="46" height="57" viewBox="0 0 46 57" fill="none" xmlns="http://www.w3.org/2000/svg">
<mask id="path-1-outside-1_100_31197" maskUnits="userSpaceOnUse" x="-2.5" y="-2" width="51" height="61" fill="black">
<rect fill="white" x="-2.5" y="-2" width="51" height="61"/>
<path d="M39.4968 57L42.8968 47.48H16.8018C19.2668 43.06 24.1968 39.915 31.5068 35.41C41.4518 29.205 45.9568 25.04 45.9568 15.605C45.9568 8.295 41.5368 0.134997 28.6168 0.134997C14.3368 0.134997 9.23676 9.74 7.70676 18.835H18.8418C20.2018 12.63 22.5818 9.4 27.8518 9.4C32.5268 9.4 34.0568 12.375 34.0568 15.69C34.0568 21.47 30.9968 23.935 22.4118 29.46C7.96176 38.64 2.77676 46.63 1.07676 55.045L0.651758 57H39.4968Z"/>
</mask>
<path d="M39.4968 57V59H40.9062L41.3802 57.6727L39.4968 57ZM42.8968 47.48L44.7802 48.1527L45.7348 45.48H42.8968V47.48ZM16.8018 47.48L15.055 46.5059L13.3964 49.48H16.8018V47.48ZM31.5068 35.41L32.5561 37.1127L32.5655 37.1068L31.5068 35.41ZM7.70676 18.835L5.73447 18.5032L5.34221 20.835H7.70676V18.835ZM18.8418 18.835V20.835H20.4509L20.7954 19.2632L18.8418 18.835ZM22.4118 29.46L23.4842 31.1482L23.4941 31.1418L22.4118 29.46ZM1.07676 55.045L3.03111 55.4699L3.03424 55.4555L3.03716 55.441L1.07676 55.045ZM0.651756 57L-1.3026 56.5751L-1.82973 59H0.651756V57ZM41.3802 57.6727L44.7802 48.1527L41.0133 46.8073L37.6133 56.3273L41.3802 57.6727ZM42.8968 45.48H16.8018V49.48H42.8968V45.48ZM18.5485 48.4541C19.5999 46.5688 21.2217 44.8716 23.5624 43.0578C25.9171 41.2331 28.8826 39.3765 32.5561 37.1126L30.4575 33.7074C26.8209 35.9485 23.6664 37.9169 21.1124 39.896C18.5443 41.8859 16.4686 43.9712 15.055 46.5059L18.5485 48.4541ZM32.5655 37.1068C37.5377 34.0045 41.4235 31.2552 44.0299 27.9593C46.7228 24.5539 47.9568 20.6959 47.9568 15.605H43.9568C43.9568 19.9491 42.9382 22.8911 40.8924 25.4782C38.76 28.1748 35.4208 30.6105 30.4481 33.7132L32.5655 37.1068ZM47.9568 15.605C47.9568 11.5717 46.7384 7.17883 43.603 3.77395C40.4328 0.33127 35.5206 -1.865 28.6168 -1.865V2.135C34.6329 2.135 38.3908 4.01873 40.6605 6.48355C42.9651 8.98617 43.9568 12.3283 43.9568 15.605H47.9568ZM28.6168 -1.865C20.977 -1.865 15.5766 0.72861 11.9079 4.72112C8.298 8.64949 6.53493 13.745 5.73447 18.5032L9.67905 19.1668C10.4086 14.83 11.9605 10.5755 14.8532 7.42762C17.6869 4.34388 21.9765 2.135 28.6168 2.135V-1.865ZM7.70676 20.835H18.8418V16.835H7.70676V20.835ZM20.7954 19.2632C21.4512 16.271 22.2931 14.3228 23.3676 13.128C24.3486 12.0372 25.6816 11.4 27.8518 11.4V7.4C24.7519 7.4 22.2599 8.37779 20.3934 10.4532C18.6204 12.4247 17.5923 15.194 16.8881 18.4068L20.7954 19.2632ZM27.8518 11.4C29.7383 11.4 30.6677 11.9794 31.1721 12.5836C31.7312 13.2533 32.0568 14.3 32.0568 15.69H36.0568C36.0568 13.7649 35.6174 11.6667 34.2427 10.0201C32.8134 8.30808 30.6402 7.4 27.8518 7.4V11.4ZM32.0568 15.69C32.0568 18.1168 31.4547 19.6903 29.9713 21.328C28.3434 23.1253 25.6724 24.9832 21.3294 27.7782L23.4941 31.1418C27.7362 28.4118 30.8876 26.2747 32.936 24.0133C35.1288 21.5922 36.0568 19.0432 36.0568 15.69H32.0568ZM21.3393 27.7719C6.60494 37.1325 0.959297 45.5264 -0.883636 54.649L3.03716 55.441C4.59422 47.7336 9.31857 40.1475 23.4842 31.1481L21.3393 27.7719ZM-0.877594 54.6201L-1.3026 56.5751L2.60611 57.4249L3.03111 55.4699L-0.877594 54.6201ZM0.651756 59H39.4968V55H0.651756V59Z" fill="#999999" mask="url(#path-1-outside-1_100_31197)"/>
</svg>
