<svg width="51" height="68" viewBox="0 0 51 68" fill="none" xmlns="http://www.w3.org/2000/svg">
<mask id="path-1-outside-1_93_30567" maskUnits="userSpaceOnUse" x="-2" y="-2" width="55" height="72" fill="black">
<rect fill="white" x="-2" y="-2" width="55" height="72"/>
<path d="M20.6844 18.8C21.8844 15 23.9844 11.2 29.4844 11.2C34.7844 11.2 36.5844 14.2 36.5844 17.8C36.5844 24.9 32.0844 26.7 25.2844 26.7H21.4844L19.2844 37.8H23.4844C31.6844 37.8 34.0844 41.3 34.0844 46.4C34.0844 52.4 30.4844 57.1 23.5844 57.1C16.8844 57.1 14.3844 53.2 13.9844 47.9H0.484375C0.384375 59.2 6.68438 68 22.3844 68C37.9844 68 48.0844 59.5 48.0844 46C48.0844 38.4 43.5844 34 39.7844 32.2V31.9C46.1844 29.5 50.3844 24.3 50.3844 16.5C50.3844 8 44.2844 0.199996 30.4844 0.199996C16.0844 0.199996 9.28438 9 7.08438 18.8H20.6844Z"/>
</mask>
<path d="M20.6844 18.8C21.8844 15 23.9844 11.2 29.4844 11.2C34.7844 11.2 36.5844 14.2 36.5844 17.8C36.5844 24.9 32.0844 26.7 25.2844 26.7H21.4844L19.2844 37.8H23.4844C31.6844 37.8 34.0844 41.3 34.0844 46.4C34.0844 52.4 30.4844 57.1 23.5844 57.1C16.8844 57.1 14.3844 53.2 13.9844 47.9H0.484375C0.384375 59.2 6.68438 68 22.3844 68C37.9844 68 48.0844 59.5 48.0844 46C48.0844 38.4 43.5844 34 39.7844 32.2V31.9C46.1844 29.5 50.3844 24.3 50.3844 16.5C50.3844 8 44.2844 0.199996 30.4844 0.199996C16.0844 0.199996 9.28438 9 7.08438 18.8H20.6844Z" fill="#4EDCCE"/>
<path d="M20.6844 18.8V20.8H22.1502L22.5915 19.4023L20.6844 18.8ZM21.4844 26.7V24.7H19.8419L19.5225 26.3112L21.4844 26.7ZM19.2844 37.8L17.3225 37.4112L16.8491 39.8H19.2844V37.8ZM13.9844 47.9L15.9787 47.7495L15.8391 45.9H13.9844V47.9ZM0.484375 47.9V45.9H-1.498L-1.51554 47.8823L0.484375 47.9ZM39.7844 32.2H37.7844V33.4657L38.9282 34.0075L39.7844 32.2ZM39.7844 31.9L39.0821 30.0273L37.7844 30.514V31.9H39.7844ZM7.08437 18.8L5.13294 18.3619L4.58562 20.8H7.08437V18.8ZM22.5915 19.4023C23.1606 17.6002 23.8724 16.0501 24.9174 14.9572C25.8905 13.9395 27.2626 13.2 29.4844 13.2V9.2C26.2062 9.2 23.7783 10.3605 22.0263 12.1928C20.3463 13.9499 19.4081 16.1998 18.7772 18.1977L22.5915 19.4023ZM29.4844 13.2C31.7572 13.2 32.9281 13.8333 33.5552 14.5097C34.2095 15.2155 34.5844 16.3042 34.5844 17.8H38.5844C38.5844 15.6958 38.0592 13.4845 36.4885 11.7903C34.8907 10.0667 32.5115 9.2 29.4844 9.2V13.2ZM34.5844 17.8C34.5844 20.8873 33.6408 22.3911 32.3629 23.2565C30.9079 24.2419 28.5989 24.7 25.2844 24.7V28.7C28.7698 28.7 32.1109 28.2581 34.6058 26.5685C37.278 24.7589 38.5844 21.8127 38.5844 17.8H34.5844ZM25.2844 24.7H21.4844V28.7H25.2844V24.7ZM19.5225 26.3112L17.3225 37.4112L21.2462 38.1888L23.4462 27.0888L19.5225 26.3112ZM19.2844 39.8H23.4844V35.8H19.2844V39.8ZM23.4844 39.8C27.3555 39.8 29.4041 40.6345 30.4967 41.6515C31.5524 42.6341 32.0844 44.1348 32.0844 46.4H36.0844C36.0844 43.5652 35.4163 40.7659 33.222 38.7235C31.0647 36.7155 27.8132 35.8 23.4844 35.8V39.8ZM32.0844 46.4C32.0844 49.0107 31.3037 51.1674 29.9468 52.6494C28.6143 54.1048 26.5539 55.1 23.5844 55.1V59.1C27.5149 59.1 30.7045 57.7452 32.897 55.3506C35.0651 52.9826 36.0844 49.7893 36.0844 46.4H32.0844ZM23.5844 55.1C20.6381 55.1 18.9316 54.257 17.8911 53.1305C16.8032 51.9527 16.1608 50.1618 15.9787 47.7495L11.99 48.0505C12.208 50.9381 13.0156 53.7473 14.9527 55.8445C16.9371 57.9929 19.8307 59.1 23.5844 59.1V55.1ZM13.9844 45.9H0.484375V49.9H13.9844V45.9ZM-1.51554 47.8823C-1.56875 53.8945 0.0825348 59.4897 4.07793 63.5843C8.08308 67.6888 14.1648 70 22.3844 70V66C14.904 66 9.98567 63.9112 6.94082 60.7907C3.88622 57.6603 2.4375 53.2055 2.4843 47.9177L-1.51554 47.8823ZM22.3844 70C30.5327 70 37.4583 67.7791 42.3814 63.5849C47.3389 59.3613 50.0844 53.2862 50.0844 46H46.0844C46.0844 52.2138 43.7798 57.1387 39.7874 60.5401C35.7604 63.9709 29.8361 66 22.3844 66V70ZM50.0844 46C50.0844 37.4793 44.9948 32.4551 40.6405 30.3925L38.9282 34.0075C42.174 35.5449 46.0844 39.3207 46.0844 46H50.0844ZM41.7844 32.2V31.9H37.7844V32.2H41.7844ZM40.4866 33.7727C47.615 31.0995 52.3844 25.1881 52.3844 16.5H48.3844C48.3844 23.4119 44.7538 27.9005 39.0821 30.0273L40.4866 33.7727ZM52.3844 16.5C52.3844 11.7638 50.6763 7.13214 46.969 3.69571C43.2648 0.262173 37.7603 -1.8 30.4844 -1.8V2.2C37.0085 2.2 41.454 4.03782 44.2498 6.62929C47.0424 9.21786 48.3844 12.7362 48.3844 16.5H52.3844ZM30.4844 -1.8C22.8476 -1.8 17.0507 0.546642 12.8655 4.34378C8.7104 8.11364 6.29814 13.1715 5.13294 18.3619L9.03581 19.2381C10.0706 14.6285 12.1584 10.3864 15.5533 7.30621C18.9181 4.25335 23.7211 2.2 30.4844 2.2V-1.8ZM7.08437 20.8H20.6844V16.8H7.08437V20.8Z" fill="#4EDCCE" mask="url(#path-1-outside-1_93_30567)"/>
</svg>
