<svg width="43" height="58" viewBox="0 0 43 58" fill="none" xmlns="http://www.w3.org/2000/svg">
<mask id="path-1-outside-1_100_32541" maskUnits="userSpaceOnUse" x="-2" y="-2" width="47" height="62" fill="black">
<rect fill="white" x="-2" y="-2" width="47" height="62"/>
<path d="M17.3817 16.03C18.4017 12.8 20.1867 9.57 24.8617 9.57C29.3667 9.57 30.8967 12.12 30.8967 15.18C30.8967 21.215 27.0717 22.745 21.2917 22.745H18.0617L16.1917 32.18H19.7617C26.7317 32.18 28.7717 35.155 28.7717 39.49C28.7717 44.59 25.7117 48.585 19.8467 48.585C14.1517 48.585 12.0267 45.27 11.6867 40.765H0.211719C0.126719 50.37 5.48172 57.85 18.8267 57.85C32.0867 57.85 40.6717 50.625 40.6717 39.15C40.6717 32.69 36.8467 28.95 33.6167 27.42V27.165C39.0567 25.125 42.6267 20.705 42.6267 14.075C42.6267 6.85 37.4417 0.219996 25.7117 0.219996C13.4717 0.219996 7.69172 7.7 5.82172 16.03H17.3817Z"/>
</mask>
<path d="M17.3817 16.03V18.03H18.8475L19.2889 16.6323L17.3817 16.03ZM18.0617 22.745V20.745H16.4192L16.0999 22.3562L18.0617 22.745ZM16.1917 32.18L14.2299 31.7912L13.7564 34.18H16.1917V32.18ZM11.6867 40.765L13.681 40.6145L13.5415 38.765H11.6867V40.765ZM0.211716 40.765V38.765H-1.77066L-1.7882 40.7473L0.211716 40.765ZM33.6167 27.42H31.6167V28.6857L32.7605 29.2275L33.6167 27.42ZM33.6167 27.165L32.9145 25.2923L31.6167 25.779V27.165H33.6167ZM5.82172 16.03L3.87029 15.5919L3.32296 18.03H5.82172V16.03ZM19.2889 16.6323C19.768 15.1152 20.356 13.8501 21.1967 12.9709C21.9653 12.167 23.0524 11.57 24.8617 11.57V7.57C21.996 7.57 19.8531 8.58803 18.3055 10.2066C16.8299 11.7499 16.0155 13.7148 15.4746 15.4277L19.2889 16.6323ZM24.8617 11.57C26.7371 11.57 27.6417 12.0908 28.1019 12.5872C28.5894 13.113 28.8967 13.9542 28.8967 15.18H32.8967C32.8967 13.3458 32.4391 11.382 31.0353 9.86777C29.6043 8.32423 27.4913 7.57 24.8617 7.57V11.57ZM28.8967 15.18C28.8967 17.7348 28.1219 18.9049 27.1403 19.5696C25.9815 20.3544 24.0963 20.745 21.2917 20.745V24.745C24.2672 24.745 27.1845 24.3706 29.3832 22.8816C31.759 21.2726 32.8967 18.6602 32.8967 15.18H28.8967ZM21.2917 20.745H18.0617V24.745H21.2917V20.745ZM16.0999 22.3562L14.2299 31.7912L18.1536 32.5688L20.0236 23.1338L16.0999 22.3562ZM16.1917 34.18H19.7617V30.18H16.1917V34.18ZM19.7617 34.18C23.0179 34.18 24.6689 34.8832 25.5178 35.6734C26.3298 36.4291 26.7717 37.6073 26.7717 39.49H30.7717C30.7717 37.0377 30.1936 34.5609 28.2431 32.7454C26.3295 30.9643 23.4756 30.18 19.7617 30.18V34.18ZM26.7717 39.49C26.7717 41.6507 26.126 43.4061 25.0335 44.5994C23.9654 45.766 22.2987 46.585 19.8467 46.585V50.585C23.2597 50.585 26.0556 49.4065 27.9837 47.3006C29.8874 45.2214 30.7717 42.4293 30.7717 39.49H26.7717ZM19.8467 46.585C17.4029 46.585 16.0415 45.8883 15.2278 45.0073C14.3668 44.0752 13.8331 42.6293 13.681 40.6145L9.69239 40.9155C9.88033 43.4057 10.5792 45.8698 12.2894 47.7214C14.047 49.6242 16.5955 50.585 19.8467 50.585V46.585ZM11.6867 38.765H0.211716V42.765H11.6867V38.765ZM-1.7882 40.7473C-1.83391 45.912 -0.415123 50.7534 3.05153 54.3061C6.52792 57.8688 11.7846 59.85 18.8267 59.85V55.85C12.5238 55.85 8.43051 54.0912 5.91441 51.5126C3.38856 48.9241 2.17235 45.223 2.21164 40.7827L-1.7882 40.7473ZM18.8267 59.85C25.805 59.85 31.7669 57.9479 36.0187 54.3255C40.305 50.6738 42.6717 45.4237 42.6717 39.15H38.6717C38.6717 44.3512 36.7459 48.4512 33.4247 51.2807C30.069 54.1396 25.1084 55.85 18.8267 55.85V59.85ZM42.6717 39.15C42.6717 31.7693 38.2571 27.4051 34.4729 25.6125L32.7605 29.2275C35.4363 30.4949 38.6717 33.6107 38.6717 39.15H42.6717ZM35.6167 27.42V27.165H31.6167V27.42H35.6167ZM34.319 29.0377C40.4873 26.7245 44.6267 21.5931 44.6267 14.075H40.6267C40.6267 19.8169 37.6261 23.5255 32.9145 25.2923L34.319 29.0377ZM44.6267 14.075C44.6267 9.97632 43.1474 5.95589 39.9276 2.97133C36.7108 -0.0103264 31.9526 -1.78 25.7117 -1.78V2.22C31.2008 2.22 34.9001 3.76532 37.2084 5.90491C39.5135 8.04161 40.6267 10.9487 40.6267 14.075H44.6267ZM25.7117 -1.78C19.155 -1.78 14.153 0.236644 10.5341 3.52003C6.94524 6.77614 4.87048 11.1365 3.87029 15.5919L7.77316 16.4681C8.64296 12.5935 10.3932 9.04885 13.2218 6.48246C16.0204 3.94335 20.0285 2.22 25.7117 2.22V-1.78ZM5.82172 18.03H17.3817V14.03H5.82172V18.03Z" fill="#999999" mask="url(#path-1-outside-1_100_32541)"/>
</svg>
