<svg width="54" height="66" viewBox="0 0 54 66" fill="none" xmlns="http://www.w3.org/2000/svg">
<mask id="path-1-outside-1_93_30714" maskUnits="userSpaceOnUse" x="-2" y="-2" width="58" height="70" fill="black">
<rect fill="white" x="-2" y="-2" width="58" height="70"/>
<path d="M39.3125 66L42.5125 50.9H49.2125L52.8125 39.8H44.8125L53.3125 0.199995H37.3125L3.8125 38.5L0.9125 50.9H29.7125L26.5125 66H39.3125ZM32.0125 39.8H16.1125C22.6125 31.8 34.9125 18 38.6125 11.9C37.4125 15.9 36.2125 20.6 34.9125 26.6L32.0125 39.8Z"/>
</mask>
<path d="M39.3125 66L42.5125 50.9H49.2125L52.8125 39.8H44.8125L53.3125 0.199995H37.3125L3.8125 38.5L0.9125 50.9H29.7125L26.5125 66H39.3125ZM32.0125 39.8H16.1125C22.6125 31.8 34.9125 18 38.6125 11.9C37.4125 15.9 36.2125 20.6 34.9125 26.6L32.0125 39.8Z" fill="#4EDCCE"/>
<path d="M39.3125 66V68H40.9331L41.269 66.4146L39.3125 66ZM42.5125 50.9V48.9H40.8919L40.556 50.4854L42.5125 50.9ZM49.2125 50.9V52.9H50.6664L51.1149 51.517L49.2125 50.9ZM52.8125 39.8L54.715 40.417L55.5637 37.8H52.8125V39.8ZM44.8125 39.8L42.857 39.3803L42.3376 41.8H44.8125V39.8ZM53.3125 0.199995L55.268 0.619728L55.7874 -1.8H53.3125V0.199995ZM37.3125 0.199995V-1.8H36.4047L35.8071 -1.11674L37.3125 0.199995ZM3.8125 38.5L2.30711 37.1833L1.97866 37.5588L1.86505 38.0445L3.8125 38.5ZM0.912498 50.9L-1.03495 50.4445L-1.60921 52.9H0.912498V50.9ZM29.7125 50.9L31.6691 51.3146L32.1808 48.9H29.7125V50.9ZM26.5125 66L24.556 65.5854L24.0442 68H26.5125V66ZM32.0125 39.8V41.8H33.6208L33.9659 40.2292L32.0125 39.8ZM16.1125 39.8L14.5603 38.5388L11.9106 41.8H16.1125V39.8ZM38.6125 11.9L40.5282 12.4747L36.9025 10.8628L38.6125 11.9ZM34.9125 26.6L36.8659 27.0292L36.8671 27.0235L34.9125 26.6ZM41.269 66.4146L44.4691 51.3146L40.556 50.4854L37.356 65.5854L41.269 66.4146ZM42.5125 52.9H49.2125V48.9H42.5125V52.9ZM51.1149 51.517L54.715 40.417L50.91 39.183L47.3101 50.283L51.1149 51.517ZM52.8125 37.8H44.8125V41.8H52.8125V37.8ZM46.768 40.2197L55.268 0.619728L51.357 -0.219738L42.857 39.3803L46.768 40.2197ZM53.3125 -1.8H37.3125V2.2H53.3125V-1.8ZM35.8071 -1.11674L2.30711 37.1833L5.31789 39.8167L38.8179 1.51673L35.8071 -1.11674ZM1.86505 38.0445L-1.03495 50.4445L2.85995 51.3555L5.75995 38.9555L1.86505 38.0445ZM0.912498 52.9H29.7125V48.9H0.912498V52.9ZM27.756 50.4854L24.556 65.5854L28.4691 66.4146L31.6691 51.3146L27.756 50.4854ZM26.5125 68H39.3125V64H26.5125V68ZM32.0125 37.8H16.1125V41.8H32.0125V37.8ZM17.6647 41.0612C20.9087 37.0686 25.5602 31.6768 29.948 26.419C34.2705 21.2395 38.3786 16.142 40.3225 12.9372L36.9025 10.8628C35.1464 13.758 31.2545 18.6105 26.877 23.856C22.5648 29.0232 17.8163 34.5314 14.5603 38.5388L17.6647 41.0612ZM36.6969 11.3253C35.4783 15.3872 34.2659 20.1395 32.9579 26.1765L36.8671 27.0235C38.1591 21.0605 39.3467 16.4128 40.5282 12.4747L36.6969 11.3253ZM32.9591 26.1708L30.0591 39.3708L33.9659 40.2292L36.8659 27.0292L32.9591 26.1708Z" fill="#4EDCCE" mask="url(#path-1-outside-1_93_30714)"/>
</svg>
