<svg width="45" height="56" viewBox="0 0 45 56" fill="none" xmlns="http://www.w3.org/2000/svg">
<mask id="path-1-outside-1_100_32544" maskUnits="userSpaceOnUse" x="-2.5" y="-2" width="50" height="60" fill="black">
<rect fill="white" x="-2.5" y="-2" width="50" height="60"/>
<path d="M33.0156 56L35.7356 43.165H41.4306L44.4906 33.73H37.6906L44.9156 0.0699956H31.3156L2.84063 32.625L0.375625 43.165H24.8556L22.1356 56H33.0156ZM26.8106 33.73H13.2956C18.8206 26.93 29.2756 15.2 32.4206 10.015C31.4006 13.415 30.3806 17.41 29.2756 22.51L26.8106 33.73Z"/>
</mask>
<path d="M33.0156 56V58H34.6362L34.9722 56.4146L33.0156 56ZM35.7356 43.165V41.165H34.1151L33.7791 42.7504L35.7356 43.165ZM41.4306 43.165V45.165H42.8845L43.3331 43.782L41.4306 43.165ZM44.4906 33.73L46.3931 34.347L47.2418 31.73H44.4906V33.73ZM37.6906 33.73L35.7352 33.3103L35.2158 35.73H37.6906V33.73ZM44.9156 0.0699959L46.8711 0.489728L47.3905 -1.93H44.9156V0.0699959ZM31.3156 0.0699959V-1.93H30.4079L29.8102 -1.24674L31.3156 0.0699959ZM2.84062 32.625L1.33523 31.3083L1.00678 31.6838L0.893173 32.1695L2.84062 32.625ZM0.375626 43.165L-1.57182 42.7095L-2.14609 45.165H0.375626V43.165ZM24.8556 43.165L26.8122 43.5796L27.3239 41.165H24.8556V43.165ZM22.1356 56L20.1791 55.5854L19.6674 58H22.1356V56ZM26.8106 33.73V35.73H28.4189L28.764 34.1592L26.8106 33.73ZM13.2956 33.73L11.7434 32.4688L9.09368 35.73H13.2956V33.73ZM32.4206 10.015L34.3363 10.5897L30.7106 8.97777L32.4206 10.015ZM29.2756 22.51L31.229 22.9392L31.2303 22.9335L29.2756 22.51ZM34.9722 56.4146L37.6922 43.5796L33.7791 42.7504L31.0591 55.5854L34.9722 56.4146ZM35.7356 45.165H41.4306V41.165H35.7356V45.165ZM43.3331 43.782L46.3931 34.347L42.5882 33.113L39.5282 42.548L43.3331 43.782ZM44.4906 31.73H37.6906V35.73H44.4906V31.73ZM39.6461 34.1497L46.8711 0.489728L42.9602 -0.349737L35.7352 33.3103L39.6461 34.1497ZM44.9156 -1.93H31.3156V2.07H44.9156V-1.93ZM29.8102 -1.24674L1.33523 31.3083L4.34602 33.9417L32.821 1.38673L29.8102 -1.24674ZM0.893173 32.1695L-1.57182 42.7095L2.32307 43.6205L4.78808 33.0805L0.893173 32.1695ZM0.375626 45.165H24.8556V41.165H0.375626V45.165ZM22.8991 42.7504L20.1791 55.5854L24.0922 56.4146L26.8122 43.5796L22.8991 42.7504ZM22.1356 58H33.0156V54H22.1356V58ZM26.8106 31.73H13.2956V35.73H26.8106V31.73ZM14.8479 34.9912C17.6044 31.5985 21.5508 27.0243 25.2862 22.5483C28.9561 18.1507 32.4643 13.7995 34.1306 11.0522L30.7106 8.97777C29.232 11.4155 25.9401 15.5218 22.2151 19.9854C18.5554 24.3707 14.5119 29.0614 11.7434 32.4688L14.8479 34.9912ZM30.505 9.4403C29.4664 12.9022 28.434 16.9495 27.321 22.0865L31.2303 22.9335C32.3273 17.8705 33.3348 13.9278 34.3363 10.5897L30.505 9.4403ZM27.3222 22.0808L24.8572 33.3008L28.764 34.1592L31.229 22.9392L27.3222 22.0808Z" fill="#999999" mask="url(#path-1-outside-1_100_32544)"/>
</svg>
