<svg width="54" height="67" viewBox="0 0 54 67" fill="none" xmlns="http://www.w3.org/2000/svg">
<mask id="path-1-outside-1_93_30840" maskUnits="userSpaceOnUse" x="-3" y="-2" width="60" height="71" fill="black">
<rect fill="white" x="-3" y="-2" width="60" height="71"/>
<path d="M53.3102 0.199995H14.0102C11.8102 9.1 6.71016 27.4 3.61016 36.4L14.7102 39C17.0102 35.1 20.0102 32.6 25.4102 32.6C31.7102 32.6 34.5102 36.5 34.5102 42.5C34.5102 50.4 30.1102 56.1 22.7102 56.1C16.6102 56.1 13.8102 52.5 13.5102 47.6H0.0101563C0.310156 59.6 8.31016 67 21.9102 67C39.1102 67 48.5102 55.3 48.5102 40.2C48.5102 29.3 41.9102 21.4 30.7102 21.4C25.9102 21.4 22.4102 22.5 19.5102 24.5C20.4102 21.5 22.2102 15.7 23.3102 11.6H48.9102L53.3102 0.199995Z"/>
</mask>
<path d="M53.3102 0.199995H14.0102C11.8102 9.1 6.71016 27.4 3.61016 36.4L14.7102 39C17.0102 35.1 20.0102 32.6 25.4102 32.6C31.7102 32.6 34.5102 36.5 34.5102 42.5C34.5102 50.4 30.1102 56.1 22.7102 56.1C16.6102 56.1 13.8102 52.5 13.5102 47.6H0.0101563C0.310156 59.6 8.31016 67 21.9102 67C39.1102 67 48.5102 55.3 48.5102 40.2C48.5102 29.3 41.9102 21.4 30.7102 21.4C25.9102 21.4 22.4102 22.5 19.5102 24.5C20.4102 21.5 22.2102 15.7 23.3102 11.6H48.9102L53.3102 0.199995Z" fill="#4EDCCE"/>
<path d="M53.3102 0.199995L55.176 0.920145L56.2259 -1.8H53.3102V0.199995ZM14.0102 0.199995V-1.8H12.4443L12.0686 -0.279942L14.0102 0.199995ZM3.61015 36.4L1.71918 35.7487L0.998055 37.8423L3.15404 38.3473L3.61015 36.4ZM14.7102 39L14.254 40.9473L15.6859 41.2827L16.4329 40.016L14.7102 39ZM13.5102 47.6L15.5064 47.4778L15.3915 45.6H13.5102V47.6ZM0.0101547 47.6V45.6H-2.04047L-1.98922 47.65L0.0101547 47.6ZM19.5102 24.5L17.5945 23.9253L15.9584 29.379L20.6456 26.1464L19.5102 24.5ZM23.3102 11.6V9.6H21.776L21.3785 11.0817L23.3102 11.6ZM48.9102 11.6V13.6H50.282L50.776 12.3201L48.9102 11.6ZM53.3102 -1.8H14.0102V2.2H53.3102V-1.8ZM12.0686 -0.279942C9.87582 8.59082 4.7921 26.8273 1.71918 35.7487L5.50113 37.0513C8.62821 27.9727 13.7445 9.60918 15.9517 0.679932L12.0686 -0.279942ZM3.15404 38.3473L14.254 40.9473L15.1663 37.0527L4.06628 34.4527L3.15404 38.3473ZM16.4329 40.016C17.4894 38.2245 18.6218 36.9017 19.9872 36.0147C21.3296 35.1426 23.0384 34.6 25.4102 34.6V30.6C22.3819 30.6 19.8907 31.3074 17.8081 32.6603C15.7485 33.9983 14.2309 35.8755 12.9874 37.984L16.4329 40.016ZM25.4102 34.6C28.13 34.6 29.7894 35.4248 30.808 36.6061C31.8711 37.8389 32.5102 39.776 32.5102 42.5H36.5102C36.5102 39.224 35.7492 36.2111 33.8373 33.9939C31.8809 31.7252 28.9903 30.6 25.4102 30.6V34.6ZM32.5102 42.5C32.5102 46.0948 31.5093 49.0037 29.8533 50.9767C28.2292 52.9116 25.8523 54.1 22.7102 54.1V58.1C26.968 58.1 30.4912 56.4384 32.917 53.5483C35.311 50.6963 36.5102 46.8052 36.5102 42.5H32.5102ZM22.7102 54.1C20.0657 54.1 18.3984 53.331 17.3552 52.2792C16.29 51.205 15.636 49.5938 15.5064 47.4778L11.5139 47.7222C11.6843 50.5062 12.5803 53.145 14.5151 55.0958C16.4719 57.069 19.2546 58.1 22.7102 58.1V54.1ZM13.5102 45.6H0.0101547V49.6H13.5102V45.6ZM-1.98922 47.65C-1.82796 54.1006 0.420822 59.5096 4.63776 63.2893C8.83454 67.051 14.7575 69 21.9102 69V65C15.4628 65 10.5858 63.249 7.30756 60.3107C4.04949 57.3904 2.14827 53.0994 2.00953 47.55L-1.98922 47.65ZM21.9102 69C30.9872 69 38.1935 65.8982 43.121 60.6285C48.0292 55.3794 50.5102 48.1589 50.5102 40.2H46.5102C46.5102 47.3411 44.2911 53.5206 40.1993 57.8965C36.1269 62.2518 30.0331 65 21.9102 65V69ZM50.5102 40.2C50.5102 34.3531 48.7366 29.1386 45.2865 25.3633C41.8162 21.5658 36.8073 19.4 30.7102 19.4V23.4C35.813 23.4 39.7041 25.1842 42.3338 28.0617C44.9837 30.9614 46.5102 35.1469 46.5102 40.2H50.5102ZM30.7102 19.4C25.5729 19.4 21.6607 20.5873 18.3747 22.8536L20.6456 26.1464C23.1596 24.4127 26.2474 23.4 30.7102 23.4V19.4ZM21.4258 25.0747C22.3153 22.1097 24.1317 16.256 25.2418 12.1183L21.3785 11.0817C20.2886 15.144 18.505 20.8903 17.5945 23.9253L21.4258 25.0747ZM23.3102 13.6H48.9102V9.6H23.3102V13.6ZM50.776 12.3201L55.176 0.920145L51.4443 -0.520155L47.0443 10.8798L50.776 12.3201Z" fill="#4EDCCE" mask="url(#path-1-outside-1_93_30840)"/>
</svg>
