<svg width="46" height="57" viewBox="0 0 46 57" fill="none" xmlns="http://www.w3.org/2000/svg">
<mask id="path-1-outside-1_100_32547" maskUnits="userSpaceOnUse" x="-2.5" y="-2" width="52" height="61" fill="black">
<rect fill="white" x="-2.5" y="-2" width="52" height="61"/>
<path d="M45.6136 0.0699956H12.2086C10.3386 7.635 6.00363 23.19 3.36863 30.84L12.8036 33.05C14.7586 29.735 17.3086 27.61 21.8986 27.61C27.2536 27.61 29.6336 30.925 29.6336 36.025C29.6336 42.74 25.8936 47.585 19.6036 47.585C14.4186 47.585 12.0386 44.525 11.7836 40.36H0.308633C0.563633 50.56 7.36363 56.85 18.9236 56.85C33.5436 56.85 41.5336 46.905 41.5336 34.07C41.5336 24.805 35.9236 18.09 26.4036 18.09C22.3236 18.09 19.3486 19.025 16.8836 20.725C17.6486 18.175 19.1786 13.245 20.1136 9.76H41.8736L45.6136 0.0699956Z"/>
</mask>
<path d="M45.6136 0.0699959L47.4795 0.790146L48.5294 -1.93H45.6136V0.0699959ZM12.2086 0.0699959V-1.93H10.6428L10.2671 -0.409941L12.2086 0.0699959ZM3.36863 30.84L1.47766 30.1887L0.756531 32.2823L2.91251 32.7873L3.36863 30.84ZM12.8036 33.05L12.3475 34.9973L13.7793 35.3327L14.5264 34.066L12.8036 33.05ZM11.7836 40.36L13.7799 40.2378L13.6649 38.36H11.7836V40.36ZM0.308632 40.36V38.36H-1.74199L-1.69074 40.41L0.308632 40.36ZM16.8836 20.725L14.968 20.1503L13.3319 25.604L18.0191 22.3714L16.8836 20.725ZM20.1136 9.76V7.76H18.5795L18.1819 9.24174L20.1136 9.76ZM41.8736 9.76V11.76H43.2455L43.7395 10.4801L41.8736 9.76ZM45.6136 -1.93H12.2086V2.07H45.6136V-1.93ZM10.2671 -0.409941C8.4043 7.12582 4.08558 22.6173 1.47766 30.1887L5.25961 31.4913C7.92169 23.7627 12.273 8.14418 14.1502 0.549932L10.2671 -0.409941ZM2.91251 32.7873L12.3475 34.9973L13.2598 31.1027L3.82475 28.8927L2.91251 32.7873ZM14.5264 34.066C15.4104 32.567 16.3441 31.4842 17.4526 30.764C18.5381 30.0589 19.9319 29.61 21.8986 29.61V25.61C19.2754 25.61 17.0992 26.2236 15.2735 27.4097C13.4707 28.5808 12.1519 30.218 11.0809 32.034L14.5264 34.066ZM21.8986 29.61C24.146 29.61 25.4641 30.2886 26.2596 31.2111C27.0996 32.1852 27.6336 33.751 27.6336 36.025H31.6336C31.6336 33.199 30.9777 30.5573 29.2889 28.5989C27.5556 26.5889 25.0063 25.61 21.8986 25.61V29.61ZM27.6336 36.025C27.6336 39.0273 26.7978 41.4262 25.4455 43.0373C24.1251 44.6103 22.1908 45.585 19.6036 45.585V49.585C23.3065 49.585 26.3871 48.1372 28.5093 45.609C30.5995 43.1188 31.6336 39.7377 31.6336 36.025H27.6336ZM19.6036 45.585C17.4167 45.585 16.0831 44.951 15.265 44.126C14.4247 43.2788 13.8869 41.9863 13.7799 40.2378L9.78737 40.4822C9.93532 42.8987 10.7151 45.2187 12.4248 46.9427C14.1567 48.689 16.6056 49.585 19.6036 49.585V45.585ZM11.7836 38.36H0.308632V42.36H11.7836V38.36ZM-1.69074 40.41C-1.55198 45.9606 0.385551 50.6421 4.04185 53.9193C7.67802 57.1785 12.791 58.85 18.9236 58.85V54.85C13.4962 54.85 9.42925 53.3765 6.71165 50.9407C4.01421 48.5229 2.42424 44.9594 2.30801 40.31L-1.69074 40.41ZM18.9236 58.85C26.7107 58.85 32.9194 56.187 37.172 51.6391C41.4052 47.1119 43.5336 40.8964 43.5336 34.07H39.5336C39.5336 40.0786 37.6671 45.2531 34.2503 48.9071C30.8528 52.5405 25.7566 54.85 18.9236 54.85V58.85ZM43.5336 34.07C43.5336 29.0406 42.0076 24.5311 39.015 21.2564C36.0022 17.9596 31.6608 16.09 26.4036 16.09V20.09C30.6665 20.09 33.8901 21.5779 36.0623 23.9548C38.2547 26.3539 39.5336 29.8344 39.5336 34.07H43.5336ZM26.4036 16.09C21.9864 16.09 18.5992 17.1123 15.7482 19.0786L18.0191 22.3714C20.0981 20.9376 22.6609 20.09 26.4036 20.09V16.09ZM18.7993 21.2997C19.5538 18.7847 21.1002 13.801 22.0453 10.2783L18.1819 9.24174C17.2571 12.689 15.7435 17.5653 14.968 20.1503L18.7993 21.2997ZM20.1136 11.76H41.8736V7.76H20.1136V11.76ZM43.7395 10.4801L47.4795 0.790146L43.7478 -0.650155L40.0078 9.03985L43.7395 10.4801Z" fill="#999999" mask="url(#path-1-outside-1_100_32547)"/>
</svg>
