<svg width="17" height="12" viewBox="0 0 17 12" fill="none" xmlns="http://www.w3.org/2000/svg">
<path id="Vector" d="M8.22778 2.51829C8.27999 2.00704 8.37793 1.62492 8.37288 1.24409C8.36662 0.768043 8.87151 0.325222 9.27452 0.569253C10.8197 1.50493 12.7156 1.41783 14.3 2.24594C14.9464 2.58384 15.6839 2.75267 16.3592 3.04386C17.0891 3.35858 17.1975 3.69602 16.6739 4.27468C16 5.01952 15.2527 5.70401 14.5105 6.38736C14.1732 6.6979 13.7603 6.92924 13.4028 7.22094C12.2129 8.19199 11.022 9.16247 9.85531 10.1594C9.53684 10.4316 9.32999 10.8255 9.01836 11.1077C8.81616 11.2908 8.51689 11.3727 8.26114 11.5C8.16105 11.281 7.95334 11.0488 7.97974 10.8453C8.08499 10.0363 8.28179 9.23879 8.4052 8.43133C8.4529 8.11916 8.45063 7.77867 8.37323 7.47456C8.26352 7.04313 8.04182 6.82843 7.47003 6.99287C5.4754 7.56628 3.44677 7.99822 1.34596 7.96392C1.08632 7.95969 0.783799 8.00611 0.578929 7.89431C0.341161 7.76451 0.189205 7.48607 0 7.27216C0.217925 7.15747 0.424826 7.01075 0.656328 6.93556C1.00991 6.82065 1.39853 6.63895 1.74062 6.68921C3.07225 6.88501 4.21786 6.14085 5.49425 6.06215C6.10463 6.02459 6.70126 5.78022 7.30461 5.63135C7.92897 5.47735 8.26386 5.12478 8.23358 4.46281C8.20596 3.85894 8.22778 3.25303 8.22778 2.51829ZM13.6993 3.03709C13.4591 2.97651 13.2175 2.92027 12.9788 2.85466C11.9469 2.57109 10.9195 2.27093 9.88258 2.00619C9.45845 1.89789 9.35488 2.07947 9.25718 2.52951C9.10522 3.22951 9.46501 3.9435 9.14427 4.58787C8.93568 5.00694 9.03693 5.01005 9.44377 5.13562C10.4982 5.4611 10.4962 5.68184 9.62874 6.4911C9.46181 6.64679 9.34763 6.90284 9.30597 7.12944C9.1868 7.77793 9.10505 8.43387 9.03844 9.08976C9.02446 9.22762 9.11868 9.3911 9.20722 9.51227C9.22834 9.54115 9.45804 9.47916 9.53927 9.40475C10.0536 8.9335 10.5331 8.4253 11.0613 7.97007C12.3214 6.88405 13.5917 5.80876 14.88 4.75468C15.353 4.36759 15.1216 3.88483 15.1289 3.44336C15.1296 3.39868 14.5944 3.35085 14.3101 3.29449C14.1488 3.26245 13.9917 3.21005 13.6993 3.03709ZM16.1015 3.81527L16.2349 4.07471C16.2794 3.98823 16.3239 3.90175 16.1015 3.81527Z" fill="white"/>
</svg>
